<svg width="512" height="512" viewBox="0 0 512 512" fill="none" xmlns="http://www.w3.org/2000/svg">
<circle cx="256" cy="256" r="248.5" fill="#80BD0B" stroke="white" stroke-width="15"/>
<path d="M381 229.187C381 215.201 369.621 203.826 355.643 203.826H291.932C296.614 188.522 302.175 159.344 284.114 141.558C278.664 136.194 271.729 133.158 264.582 133.008C257.382 132.837 251.107 135.419 246.432 140.415C243.871 143.167 242.456 146.792 242.475 150.551V153.09C242.475 179.197 230.579 203.376 210.654 217.758C204.764 222.012 198.291 225.394 191.436 227.801C191.273 224.732 189.942 221.842 187.714 219.724C185.487 217.607 182.534 216.423 179.461 216.415H143.039C139.848 216.419 136.789 217.688 134.532 219.944C132.275 222.201 131.005 225.26 131 228.451V366.558C131.004 369.75 132.273 372.81 134.53 375.067C136.787 377.324 139.847 378.594 143.039 378.597H179.468C182.658 378.593 185.717 377.323 187.973 375.067C190.229 372.811 191.499 369.752 191.504 366.562V361.658C212.736 365.244 234.639 367.047 257.107 367.047C282.225 367.047 308.043 364.804 334.379 360.319C340.79 360.14 346.879 357.47 351.353 352.875C355.828 348.28 358.335 342.122 358.343 335.708C358.343 331.583 357.311 327.697 355.511 324.279C365.786 321.137 373.286 311.565 373.286 300.276C373.286 294.99 371.636 290.097 368.839 286.047C372.536 283.882 375.603 280.787 377.736 277.071C379.87 273.355 380.995 269.146 381 264.862C381 257.926 378.107 251.669 373.475 247.19C375.86 244.838 377.753 242.034 379.045 238.944C380.336 235.853 381.001 232.536 381 229.187ZM177.218 364.312H145.286V230.701H177.218V364.312ZM356.4 254.551C362.086 254.551 366.714 259.176 366.714 264.865C366.714 270.554 362.086 275.176 356.4 275.176H314.132C312.238 275.176 310.421 275.928 309.081 277.268C307.742 278.608 306.989 280.424 306.989 282.319C306.989 284.213 307.742 286.03 309.081 287.369C310.421 288.709 312.238 289.462 314.132 289.462H348.186C351.054 289.464 353.803 290.605 355.831 292.633C357.858 294.662 358.998 297.412 359 300.279C358.996 303.146 357.856 305.894 355.828 307.921C353.801 309.948 351.052 311.087 348.186 311.09H323.375C321.481 311.09 319.664 311.843 318.324 313.182C316.985 314.522 316.232 316.339 316.232 318.233C316.232 320.127 316.985 321.944 318.324 323.284C319.664 324.623 321.481 325.376 323.375 325.376H333.725C336.465 325.379 339.092 326.469 341.029 328.406C342.966 330.344 344.055 332.972 344.057 335.712C344.053 338.451 342.964 341.077 341.027 343.013C339.09 344.95 336.464 346.04 333.725 346.044C333.318 346.044 332.914 346.079 332.518 346.147C283.136 354.615 235.729 354.933 191.504 347.147V242.804C201.383 239.933 210.692 235.378 219.021 229.34C242.654 212.279 256.764 183.776 256.764 153.09V150.551C256.76 150.418 256.798 150.287 256.871 150.176C258.746 148.169 261.2 147.212 264.289 147.29C267.775 147.362 271.254 148.944 274.093 151.74C291.657 169.033 275.843 206.729 275.271 208.058C274.914 208.851 274.714 209.719 274.671 210.629C274.671 210.722 274.646 210.815 274.643 210.904L274.639 210.969C274.639 211.212 274.686 211.444 274.711 211.683C274.732 211.897 274.736 212.112 274.775 212.315C274.821 212.565 274.907 212.801 274.979 213.04C275.043 213.247 275.089 213.458 275.171 213.654C275.25 213.854 275.361 214.033 275.457 214.222C275.575 214.451 275.682 214.687 275.825 214.901C275.907 215.026 276.011 215.133 276.1 215.251C276.289 215.508 276.482 215.762 276.707 215.99C276.771 216.054 276.85 216.108 276.914 216.169C277.186 216.426 277.464 216.669 277.779 216.883C277.814 216.908 277.85 216.919 277.886 216.944C278.214 217.158 278.546 217.365 278.918 217.526C279.904 217.962 280.932 218.133 281.943 218.112H355.643C361.75 218.112 366.718 223.076 366.718 229.183C366.718 235.29 361.754 240.262 355.646 240.262H309.507C307.613 240.262 305.796 241.014 304.456 242.354C303.117 243.693 302.364 245.51 302.364 247.404C302.364 249.299 303.117 251.116 304.456 252.455C305.796 253.795 307.613 254.547 309.507 254.547H356.396L356.4 254.551Z" fill="white"/>
</svg>
